<svg version="1.2" xmlns="http://www.w3.org/2000/svg" viewBox="0 0 512 370" width="512" height="370">
	<title>New Project</title>
	<style>
		.s0 { fill: #9b2c71 } 
		.s1 { fill: #601f49 } 
		.s2 { fill: #cea0bc } 
		.s3 { fill: none;stroke: #cea0bc;stroke-width: 2.7 } 
	</style>
	<path id="Crystal" fill-rule="evenodd" class="s0" d="m13.7 249.4h53.4l-12.2 12.3h-37v30.5h47.3l-12.4 12.3h-39.1l-12.5-12.5v-30.1zm130 39.3v25.3l-16.7-9.5v-13.5l-5-5h-31.8v18.5h-16.6v-55.1h57.5l12.6 16.9-9.6 12.8zm-21.5-15.1l4.4-6.1-4.4-5.8h-31.9v11.9zm74.8-24.1h19.7l-29.1 29v35.6l-16.6-9.6v-26l-29.2-29h19.8l17.7 17.6zm80.2 21.9l12.2 16.3-12.6 16.9h-63.9l12.2-12.2h42l3.9-4.7-3.9-5h-42.1l-12.1-16.2 12.5-17h64l-12.4 12.3h-41.9l-4 4.7 4 4.9zm19.1-21.9h73.9l-12.3 12.3h-16.4v52.3l-16.6-9.5v-42.8h-16.4zm139.3 12.5v52.1l-16.8-9.5v-15.9h-33.4v15.9l-16.7-0.1v-42.5l12.5-12.5h41.8zm-50.2 14.6h33.5v-14.8h-33.5zm78.7 15.7h47.4l-12.4 12.3h-51.6v-55.1l16.6-9.6z"/>
	<path id="ENGINE" class="s1" d="m181.3 332.6q0 0.3-0.2 0.5-0.2 0.2-0.5 0.2h-20q-0.3 0-0.3 0.4v7.8q0 0.3 0.3 0.3h12.8q0.3 0 0.5 0.2 0.2 0.2 0.2 0.5v7.5q0 0.3-0.2 0.5-0.2 0.2-0.5 0.2h-12.8q-0.3 0-0.3 0.4v8.3q0 0.4 0.3 0.4h20q0.3 0 0.5 0.2 0.2 0.2 0.2 0.5v7.5q0 0.3-0.2 0.6-0.2 0.2-0.5 0.2h-30.1q-0.3 0-0.6-0.2-0.1-0.3-0.1-0.6v-42.9q0-0.3 0.1-0.5 0.3-0.3 0.6-0.3h30.1q0.3 0 0.5 0.3 0.2 0.2 0.2 0.5zm30.3-7.5q0-0.3 0.2-0.5 0.3-0.3 0.6-0.3h9q0.3 0 0.5 0.3 0.3 0.2 0.3 0.5v42.9q0 0.3-0.3 0.6-0.2 0.2-0.5 0.2h-8.6q-0.7 0-0.9-0.5l-14.6-24.3q-0.2-0.2-0.3-0.1-0.1 0-0.1 0.2v23.9q0 0.3-0.2 0.6-0.2 0.2-0.5 0.2h-9q-0.4 0-0.6-0.2-0.2-0.3-0.2-0.6v-42.9q0-0.3 0.2-0.5 0.2-0.3 0.6-0.3h8.7q0.6 0 0.8 0.5l14.6 24.2q0.1 0.2 0.2 0.2 0.2 0 0.2-0.3zm33.1 44.2q-5.1 0-8.9-2-3.8-2.1-6-5.7-2.1-3.7-2.1-8.6v-13q0-4.8 2.1-8.4 2.2-3.7 6-5.7 3.8-2.1 8.9-2.1 5 0 8.9 2 3.9 1.9 6 5.3 2.1 3.3 2.1 7.4v0.3q0 0.3-0.2 0.6-0.2 0.2-0.5 0.2h-9q-0.4 0-0.6-0.2-0.2-0.3-0.2-0.6 0-2.5-1.8-4.2-1.7-1.8-4.7-1.8-2.9 0-4.7 2-1.8 1.9-1.8 4.9v13.7q0 3 2 4.9 2 1.9 5 1.9 2.8 0 4.5-1.4 1.7-1.6 1.7-4.2v-1.8q0-0.3-0.3-0.3h-6.4q-0.3 0-0.6-0.2-0.1-0.3-0.1-0.6v-7q0-0.3 0.1-0.5 0.3-0.2 0.6-0.2h16.3q0.3 0 0.5 0.2 0.2 0.2 0.2 0.5v8.7q0 4.7-2.1 8.3-2.1 3.7-6 5.6-3.8 2-8.9 2zm23.3-0.5q-0.3 0-0.5-0.2-0.2-0.3-0.2-0.6v-42.9q0-0.3 0.2-0.5 0.2-0.3 0.5-0.3h9q0.4 0 0.6 0.3 0.2 0.2 0.2 0.5v42.9q0 0.3-0.2 0.6-0.2 0.2-0.6 0.2zm41.3-43.7q0-0.3 0.2-0.5 0.3-0.3 0.6-0.3h9q0.3 0 0.5 0.3 0.3 0.2 0.3 0.5v42.9q0 0.3-0.3 0.6-0.2 0.2-0.5 0.2h-8.6q-0.7 0-0.9-0.5l-14.6-24.3q-0.2-0.2-0.3-0.1-0.1 0-0.1 0.3l0.1 23.8q0 0.3-0.3 0.6-0.2 0.2-0.5 0.2h-9q-0.3 0-0.6-0.2-0.2-0.3-0.2-0.6v-42.9q0-0.3 0.2-0.5 0.3-0.3 0.6-0.3h8.7q0.6 0 0.9 0.5l14.5 24.2q0.1 0.2 0.3 0.2 0.1 0 0.1-0.3zm48.2 7.5q0 0.3-0.3 0.6-0.2 0.2-0.5 0.2h-19.9q-0.3 0-0.3 0.3v7.8q0 0.3 0.3 0.3h12.7q0.4 0 0.6 0.3 0.2 0.2 0.2 0.5v7.4q0 0.3-0.2 0.6-0.2 0.2-0.6 0.2h-12.7q-0.3 0-0.3 0.3v8.4q0 0.3 0.3 0.3h19.9q0.3 0 0.5 0.2 0.3 0.2 0.3 0.5v7.5q0 0.4-0.3 0.6-0.2 0.2-0.5 0.2h-30q-0.3 0-0.6-0.2-0.2-0.2-0.2-0.6v-42.9q0-0.3 0.2-0.5 0.3-0.2 0.6-0.2h30q0.3 0 0.5 0.2 0.3 0.2 0.3 0.5z"/>
	<path id="path154" class="s1" d="m312.5 73.4l-15.3 15.5-13.1 54.1-21 23.8c0 0-14.8 57.1-14 56.9 0.7-0.3 49.1-83.5 49.1-83.5l18.3-51.3zm-53.9-72l1.7 28.1 28.2 42.6 10.5 7.4 11.8-10.9-9.4-36.1z"/>
	<path id="path158" class="s2" d="m249.1 223.7l-45.6-78.9-18.3-53.9 3-12 12 15.6 13.5 50.8 20.8 25.5zm1.3-222.3l-1.9 31-31.9 46.5-14.2 8.1-11.8-13.3 12.2-38z"/>
	<path id="path170" class="s0" d="m277.1 142.5l-21.7 22.5-6.4 36.9-7.9-36.9-21.1-22.5-13.5-48 14.3-7.6 34.6-45.6 27.4 37.6 8.6 8z"/>
	<path id="path174" class="s3" d="m362.5 345.2h81.2m-0.8 0.9v-29.7m-390.9 29.7v-29.7m-0.9 28.8h81.3m307.8-110.9c-10-61.3-48.5-113-101.4-141.1m-178.9-2c-55.9 28-96.5 82.2-105.9 146.4"/>
</svg>