<svg version="1.2" xmlns="http://www.w3.org/2000/svg" viewBox="0 0 1028 1028" width="1028" height="1028">
	<title>CrystalEngineLogoWhiteOutline-svg</title>
	<style>
		.s0 { fill: #601f49;stroke: #ffffff;paint-order:stroke fill markers;stroke-linejoin: round;stroke-width: 8 } 
		.s1 { fill: #cea0bc;stroke: #ffffff;paint-order:stroke fill markers;stroke-linejoin: round;stroke-width: 8 } 
		.s2 { fill: #9b2c71;stroke: #ffffff;paint-order:stroke fill markers;stroke-linejoin: round;stroke-width: 8 } 
	</style>
	<path id="path154" class="s0" d="m797.6 334.6l-70.4 71.3-60.3 248.9-96.6 109.5c0 0-68 262.6-64.4 261.7 3.3-1.4 225.9-384.1 225.9-384.1l84.2-236zm-248-331.2l7.9 129.3 129.7 195.9 48.3 34.1 54.3-50.2-43.3-166z"/>
	<path id="path158" class="s1" d="m505.9 1026l-209.7-362.9-84.2-248 13.8-55.2 55.2 71.8 62.1 233.7 95.7 117.3zm6-1022.6l-8.8 142.6-146.7 213.9-65.3 37.2-54.3-61.2 56.1-174.8z"/>
	<path id="path170" class="s2" d="m634.7 652.5l-99.8 103.5-29.4 169.7-36.4-169.7-97-103.5-62.1-220.8 65.8-35 159.1-209.8 126.1 173 39.5 36.8z"/>
</svg>