<svg version="1.2" xmlns="http://www.w3.org/2000/svg" viewBox="0 0 1024 1024" width="1024" height="1024">
	<title>CrystalEngineLogoWhite-svg</title>
	<style>
		.s0 { fill: #ffffff } 
	</style>
	<path id="path154" class="s0" d="m795.6 332.6l-70.4 71.3-60.3 248.9-96.6 109.5c0 0-68 262.6-64.4 261.7 3.3-1.4 225.9-384.1 225.9-384.1l84.2-236zm-248-331.2l7.9 129.3 129.7 195.9 48.3 34.1 54.3-50.2-43.3-166zm-43.7 1022.6l-209.7-363-84.2-247.9 13.8-55.2 55.2 71.7 62.1 233.7 95.7 117.3zm5.9-1022.6l-8.7 142.6-146.7 213.9-65.4 37.3-54.2-61.2 56.1-174.8zm122.8 649.1l-99.8 103.5-29.5 169.7-36.3-169.7-97.1-103.5-62.1-220.8 65.8-35 159.2-209.8 126 173 39.6 36.8z"/>
</svg>